<?xml version="1.0" encoding="utf-8"?>
<!-- Generator: Adobe Illustrator 27.4.1, SVG Export Plug-In . SVG Version: 6.00 Build 0)  -->
<svg version="1.1" id="Layer_1" xmlns="http://www.w3.org/2000/svg" xmlns:xlink="http://www.w3.org/1999/xlink" x="0px" y="0px"
	 viewBox="0 0 125 125" style="enable-background:new 0 0 125 125;" xml:space="preserve">
<style type="text/css">
	.st0{fill-rule:evenodd;clip-rule:evenodd;fill:#3A86FF;}
</style>
<g>
	<path class="st0" d="M40.2,75.8l8.9,26.3l4.5-15.6l-2.2-2.4c-1-1.4-1.2-2.7-0.7-3.8c1.2-2.4,3.7-1.9,6-1.9c2.4,0,5.4-0.5,6.2,2.6
		c0.3,1-0.1,2.1-0.8,3.2l-2.2,2.4l4.5,15.6l8.1-26.3c1.7,1.6,4.5,2.7,7.6,3.7c0.5-0.6,1-1.1,1.5-1.7c4.6-4.6,10.9-7.4,17.9-7.4
		c7,0,13.3,2.8,17.9,7.4c4.6,4.6,7.4,10.9,7.4,17.9c0,7-2.8,13.3-7.4,17.9c-4.6,4.6-10.9,7.4-17.9,7.4c-5.3,0-10.2-1.6-14.3-4.4H6.2
		c-3.9-0.3-5.8-2.3-6.2-5.8c1-6.7,1.3-15.4,5.3-20.8c1.5-2,3.3-3.4,5.4-4.5C17.1,82.1,34.4,81.1,40.2,75.8L40.2,75.8L40.2,75.8z
		 M93.9,85.1h3.1h3v12.3h12.6v5.8H99.9h-6v-5.8L93.9,85.1L93.9,85.1z M114.9,80.6c-3.9-3.9-9.3-6.3-15.3-6.3c-6,0-11.4,2.4-15.3,6.3
		c-3.9,3.9-6.3,9.3-6.3,15.3s2.4,11.4,6.3,15.3c3.9,3.9,9.3,6.3,15.3,6.3s11.4-2.4,15.3-6.3c3.9-3.9,6.3-9.3,6.3-15.3
		C121.2,89.9,118.8,84.5,114.9,80.6L114.9,80.6z M35.9,38.2c0.7,0.2,1.4,0.2,2.1,0.1l-1.3-10.1c0.7-2.5,1.6-4.4,3-5.9
		c1.4-1.5,3.1-2.4,5.2-2.8c2.7-0.2,3.6,1.8,6.3,3.6c8.3,5.3,15.4,7.1,25.6,7.2l-1.3,6.4c-0.2,0.3-0.3,0.6-0.2,0.9c0,0.1,0,0.1,0,0.2
		l-0.2,0.9c0.3,0,0.6,0,0.8,0c0.3,0.2,0.6,0.2,0.9,0.2c1.8-0.2,2.9,0,3.2,0.6c0.4,0.8,0.1,2.5-1.1,5.1L73.4,54
		c-2.1,3.4-4.2,6.9-6.9,9.4c-2.6,2.4-5.8,4-10.1,4c-4,0-7-1.6-9.6-3.8c-2.6-2.4-4.7-5.6-6.7-8.8l-5-7.9l0,0l0,0
		c-1.5-2.3-2.3-4.3-2.4-5.8c0-0.5,0.1-1,0.2-1.3c0.2-0.3,0.4-0.6,0.7-0.8C34.2,38.5,35,38.3,35.9,38.2L35.9,38.2L35.9,38.2
		L35.9,38.2z M80.3,36.4l0.3-12.9c-0.4-5.3-2.1-9.2-4.9-12.2C69,3.9,56.2,2,46.7,5.4C45,6,43.5,6.8,42.1,7.7
		c-4,2.5-7.2,6.2-8.4,10.8c-0.3,1.1-0.5,2.2-0.6,3.2c-0.2,4.5-0.1,9.9,0.2,14.3c-0.4,0.2-0.9,0.4-1.2,0.6c-0.8,0.5-1.4,1.2-1.7,2
		c-0.4,0.8-0.5,1.6-0.5,2.6c0.1,2,1,4.5,2.8,7.3l5,7.9c2.1,3.3,4.3,6.8,7.2,9.4c3,2.7,6.6,4.6,11.5,4.6c5.2,0,9-1.9,12.1-4.8
		c3-2.8,5.2-6.4,7.4-10l5.7-9.4c0-0.1,0.1-0.1,0.1-0.2l0,0c1.6-3.5,1.9-6,1.1-7.6C82.2,37.4,81.4,36.7,80.3,36.4L80.3,36.4
		L80.3,36.4L80.3,36.4z"/>
</g>
</svg>
