<?xml version="1.0" encoding="utf-8"?>
<!-- Generator: Adobe Illustrator 27.4.1, SVG Export Plug-In . SVG Version: 6.00 Build 0)  -->
<svg version="1.1" id="Layer_1" xmlns="http://www.w3.org/2000/svg" xmlns:xlink="http://www.w3.org/1999/xlink" x="0px" y="0px"
	 viewBox="0 0 125 125" style="enable-background:new 0 0 125 125;" xml:space="preserve">
<style type="text/css">
	.st0{fill-rule:evenodd;clip-rule:evenodd;fill:#3A86FF;}
</style>
<path class="st0" d="M96.1,76.2c11.6,0,21,9.4,21,21s-9.4,21-21,21s-21-9.4-21-21S84.5,76.2,96.1,76.2L96.1,76.2z M70.9,109.1H4.2
	C4.1,84.2,19.3,89,35.8,80.6c4.3-2.1,5.1-2.9,7.2-7.6c0.1-0.1,0.1-0.3,0.2-0.4c-3-2.7-5.3-5.4-5.8-10.9H37c-0.7,0-1.5-0.2-2.1-0.6
	h-0.1c-1.5-1-2.4-2.6-2.8-4.3c-0.5-2.2-0.6-4.5-0.3-6.8l0.1-0.3c0.3-1.2,1.1-2.1,2.2-2.6c-0.4-7.1,0.8-18.4-6.4-20.6
	C42,8.7,58.6-0.9,71.1,14.9c14.4,0.8,20.6,23.2,9.7,33.2c0.8-0.1,1.6,0.1,2.3,0.5c0.8,0.4,1.4,1.2,1.7,2c0.3,1.1,0.3,2.4-0.1,3.5
	l-1.8,5.2c-0.2,0.7-0.6,1.4-1.1,1.9c-0.7,0.5-1.6,0.7-2.5,0.6l-0.6-0.1c-0.1,4.8-2,7.6-4.8,10.4l0.1,0.2c0.6,1.7,1.5,3.3,2.8,4.6
	l-0.5,0.4c-0.6,0.6-1.2,1.2-1.7,1.8c-1.3-1.4-2.4-3-3.3-4.7c-3.7,3.5-7.5,6-12.8,6c-5.1,0-9.2-2.4-12.9-5.7
	c-1.2,2.5-2.8,4.8-4.7,6.8c5.7,8.3,19.4,10.1,28.9,5.6C67.4,94.3,67.8,102.2,70.9,109.1L70.9,109.1z M69.2,28.3
	c-5,5.1-10.8,5.2-16,5.5c-2.9,0.5-5.7,1.6-8.1,3.4c-1.9,1.2-3.3,3-4.1,5c-0.7,2.3-0.8,4.7-0.2,7.1c0.1,0.3,0,0.5-0.1,0.8
	c-0.3,0.7-1,1.1-1.7,0.8l-1.3-0.5c-1.7-0.6-2.9-0.9-3.3,0.2c-0.2,1.9-0.1,3.8,0.3,5.6c0.2,1,0.7,2,1.5,2.6l0,0
	c0.3,0.1,0.5,0.2,0.8,0.2c0.4,0,0.8-0.1,1.2-0.2l0.4-0.1c0.7,0,1.4,0.5,1.4,1.3c0,0,0,0,0,0.1c0.2,6.3,2.9,8.8,6.3,11.7l1.5,1.3
	c3.5,3.1,7.2,4.7,10.8,4.7s7-1.5,10.2-4.6l1.1-1.1c3.7-3.6,6.4-6.1,5.9-12.4c0-0.3,0.1-0.6,0.2-0.8c0.4-0.6,1.2-0.8,1.8-0.4
	c0.4,0.3,0.9,0.5,1.4,0.5H80l2-5.7c0.3-0.6,0.3-1.3,0.2-2c0-0.2-0.2-0.3-0.3-0.4c-0.3-0.1-0.6-0.2-0.9-0.1c-0.9,0.1-1.8,0.4-2.6,1
	c-0.3,0.2-0.7,0.3-1,0.3c-0.7-0.1-1.2-0.8-1.1-1.6c1.3-7.7,0.7-12.8-0.9-16.2C74,31.7,71.9,29.5,69.2,28.3L69.2,28.3z M92.3,87.2
	c0-1.1-0.1-1.9,1.3-1.9l4.5,0.1c1.5,0,1.8,0.5,1.8,1.8v6.2h6.1c1.1,0,1.9-0.1,1.9,1.3l-0.1,4.5c0,1.5-0.5,1.8-1.8,1.8h-6.1v6.1
	c0,1.4-0.4,1.8-1.8,1.8l-4.5,0.1c-1.4,0-1.3-0.8-1.3-1.9V101h-6.2c-1.4,0-1.8-0.4-1.8-1.8l-0.1-4.5c0-1.4,0.8-1.3,1.9-1.3h6.1
	L92.3,87.2L92.3,87.2z"/>
</svg>
