<?xml version="1.0" encoding="utf-8"?>
<!-- Generator: Adobe Illustrator 27.4.1, SVG Export Plug-In . SVG Version: 6.00 Build 0)  -->
<svg version="1.1" id="Layer_1" xmlns="http://www.w3.org/2000/svg" xmlns:xlink="http://www.w3.org/1999/xlink" x="0px" y="0px"
	 viewBox="0 0 125 125" style="enable-background:new 0 0 125 125;" xml:space="preserve">
<style type="text/css">
	.st0{fill-rule:evenodd;clip-rule:evenodd;fill:#3A86FF;}
</style>
<g>
	<path class="st0" d="M80.2,86.9c-4.4,4.9-9.6,9.2-15.4,12.7c-0.7,0.5-1.7,0.6-2.5,0.1c-8.6-5.4-15.7-12-21.4-19.1
		C33.1,70.9,28.2,60,26.5,49.6c-1.7-10.6-0.1-20.8,5.2-29.1c2.1-3.3,4.7-6.3,8-8.8c7.4-5.9,15.9-9.1,24.4-9
		c8.1,0.1,16.2,3.1,23.1,9.4c2.4,2.2,4.5,4.8,6.2,7.5C99,29,100.2,40.9,97.8,53C95.3,64.9,89.2,77,80.2,86.9L80.2,86.9L80.2,86.9
		L80.2,86.9z M25.8,78.5c2,0,3.7,1.6,3.7,3.7c0,2-1.6,3.7-3.7,3.7h-6.9l-9,29.2h105l-9.8-29.2h-5.7c-2,0-3.7-1.6-3.7-3.7
		c0-2,1.6-3.7,3.7-3.7h10.9l14.7,43.8H0l13.6-43.8L25.8,78.5L25.8,78.5z M62.4,21.5c10.1,0,18.2,8.1,18.2,18.2
		c0,10.1-8.1,18.2-18.2,18.2c-10.1,0-18.2-8.1-18.2-18.2C44.2,29.7,52.4,21.5,62.4,21.5L62.4,21.5L62.4,21.5z"/>
</g>
</svg>
