<?xml version="1.0" encoding="utf-8"?>
<!-- Generator: Adobe Illustrator 27.4.1, SVG Export Plug-In . SVG Version: 6.00 Build 0)  -->
<svg version="1.1" id="Layer_1" xmlns="http://www.w3.org/2000/svg" xmlns:xlink="http://www.w3.org/1999/xlink" x="0px" y="0px"
	 viewBox="0 0 125 125" style="enable-background:new 0 0 125 125;" xml:space="preserve">
<style type="text/css">
	.st0{fill-rule:evenodd;clip-rule:evenodd;fill:#3A86FF;}
</style>
<g>
	<path class="st0" d="M86.5,96l2.5-8.7L87.8,86c-0.6-0.8-0.7-1.5-0.4-2.1c0.7-1.3,2.1-1.1,3.3-1.1c1.4,0,3-0.3,3.4,1.4
		c0.1,0.6,0,1.2-0.4,1.8l-1.2,1.4l2.5,8.7l-4.3,3.4L86.5,96L86.5,96z M34.5,77c-2.1-2.4-2.3-4.9,0-7.6c2.7,0.7,5.1,1.8,7.3,3.4
		c0.5-0.2,1-0.3,1.6-0.3c2.3-1.6,5.3-2.3,7.9-3.6c3.1,3,2.8,5.8-0.3,8.4c-1.7-0.4-3.3-1-4.9-1.8c0,0.4-0.1,0.8-0.3,1.3l0.8,6.6h-6.3
		l0.8-6.6c-0.5-0.8-0.7-1.5-0.7-2.1C38.6,75.8,36.6,76.5,34.5,77L34.5,77z M26.1,41.8c-0.9,0-1.6,0.2-2.1,0.5
		c-0.3,0.2-0.5,0.4-0.6,0.7c-0.1,0.3-0.2,0.7-0.2,1.1c0,1.3,0.7,2.9,2,4.9l0,0l0,0l4.2,6.7c1.7,2.7,3.4,5.4,5.6,7.4
		c2.1,1.9,4.7,3.2,8,3.2c3.7,0,6.3-1.3,8.5-3.4c2.3-2.1,4-5,5.8-7.9l4.7-7.8c0.9-2,1.2-3.4,1-4.1c-0.1-0.5-0.6-0.7-1.5-0.7
		c-0.2,0-0.4,0-0.6,0c-0.2,0-0.4,0-0.7,0c-0.1,0-0.2,0-0.4,0c-0.4,0-0.9,0-1.3-0.1l1.6-7.2c-12,1.9-21-7-33.7-1.8l0.9,8.5
		C27,41.9,26.5,41.9,26.1,41.8L26.1,41.8L26.1,41.8z M31.7,71.6c-0.1,0.1-0.2,0.2-0.3,0.3c0.4,3.2,1,7.3,1.6,11.6H8
		c-1.8,0-3.2,1.7-3,3.7l3.5,26.3H5.3c-2.9-0.2-4.4-1.7-4.7-4.4c0.1-11.7-4.3-26,8.1-32.8c4.5-2.5,16.2-3.4,21.3-6.7
		c0.7-1.4,1.6-3.9,2.1-5.4l0.1-0.2l0,0l-0.1,0.2c0,0.1,0.1-0.3,0.1-0.2l0,0l0.1-0.2c-1.9-2-3.4-4.4-4.9-6.7l-4.2-6.7
		c-1.5-2.3-2.3-4.4-2.4-6.1c0-0.8,0.1-1.5,0.4-2.2c0.3-0.7,0.8-1.2,1.4-1.7c0.3-0.2,0.6-0.4,1-0.5c-0.3-3.6-0.4-8.2-0.2-12
		c0.1-0.9,0.3-1.8,0.5-2.7c1.5-5.5,6.3-9.4,11.6-11.3c2.6-0.9,1.6-3.1,4.3-2.9c6.3,0.3,15.9,4.4,19.6,8.7c5.2,6,3.9,13.4,3.7,20.7
		l0,0c1.2,0.4,1.9,1.1,2.2,2.3c0.3,1.3,0,3.2-1.1,5.7l0,0c0,0.1,0,0.1-0.1,0.1l-4.8,7.9c-1.8,3-3.7,6.1-6.2,8.4l-0.1,0.1
		c0.2,0.3,0.5,0.7,0.8,1.1c0.8,1.2,1.8,2.6,2.7,3.7c5.2,3.2,16.6,4.1,21.1,6.6c1.1,0.6,2,1.3,2.8,2c0.7-0.6,1.4-1.2,1.9-1.7
		c-0.2-0.3-0.5-0.6-0.7-0.8l-2.3-2.7l-1.7,0l-3.3,0.1C71.5,70,71.7,63.1,72,59.1c1.3-8,4.4-13.8,9.4-17.1c3.4-2.3,5.5-2.4,9.5-2.4
		c3.5,0,5.6-0.1,8.6,1.9c9.7,6.4,12.7,21.4,8,31.6h-3.4l-0.2,0.3l-0.3,0.4l-1.5,1.8c-0.6,0.7-1.2,1.4-1.8,2.1
		c0.8,0.8,1.9,1.8,2.9,2.6c0.5,0.4,0.9,0.8,1.3,1.2c15.2,6,18.5,9.6,20.3,29.1c0.3,3.6,0.3,3.4-3.2,3.5c-12.8,0.3-29.1,0-43.9-0.1
		l0.1-0.5l3.5-26.3c0.3-2-1.2-3.7-3-3.7h-1.3H72H54c0.6-4.3,1-8.4,1.3-11.5c-1.1-1.3-2.4-3.1-3.4-4.6c-0.2-0.3-0.5-0.7-0.7-1
		c-2.2,1.5-4.8,2.4-8.1,2.4c-3.7,0-6.5-1.3-8.8-3.2C33.6,67.6,32.6,70.3,31.7,71.6L31.7,71.6z M81.4,79.3c5.1,5.8,4.3,15.1,4.1,23.4
		l5.2,8.7l12.7-21.1l5.5,0.1c-1.3-2.6-2.8-4.9-4.5-7.1c-0.5-0.5-1.4-1.3-2.3-2.1c-1-0.9-2.2-1.9-3-2.7c-0.3,0.3-0.7,0.6-1.1,0.8
		c-1.6,1.1-3.7,1.9-6.5,1.9c-2.6,0-4.6-0.7-6.2-1.8c-0.8-0.5-1.5-1.1-2.1-1.8C82.8,78.2,82.1,78.7,81.4,79.3L81.4,79.3z M42.8,97.3
		c2.5,0,4.5,2,4.5,4.5c0,2.5-2,4.5-4.5,4.5c-2.5,0-4.5-2-4.5-4.5S40.4,97.3,42.8,97.3L42.8,97.3z M79.9,71.9
		c-2.7-9.3-1.4-17.8,5.9-25.1c1.3,4.2,4.2,7.6,9.1,10.1c2.3,1.7,4.6,3.9,6.8,6.3c0.4-1.6-1.1-3.6-2.9-5.6c1.7,0.8,3.2,2,4.3,4.2
		c1.3,2.6,1.2,4.7,0.8,7.5c-0.1,0.9-0.3,1.7-0.5,2.5c-0.1,0-0.1,0.1-0.2,0.2c-0.2,0.2-0.4,0.5-0.6,0.7c-0.1,0.1-0.1,0.2-0.3,0.4
		l-1.5,1.8c-1.1,1.4-2.3,2.7-3.7,3.7c-1.4,1-3.1,1.6-5.5,1.6c-2.2,0-3.8-0.6-5.2-1.5c-1.4-0.9-2.5-2.2-3.6-3.5l-2.7-3.1
		C80.1,72,80,71.9,79.9,71.9L79.9,71.9z"/>
</g>
</svg>
