<?xml version="1.0" encoding="utf-8"?>
<!-- Generator: Adobe Illustrator 27.4.1, SVG Export Plug-In . SVG Version: 6.00 Build 0)  -->
<svg version="1.1" id="Layer_1" xmlns="http://www.w3.org/2000/svg" xmlns:xlink="http://www.w3.org/1999/xlink" x="0px" y="0px"
	 viewBox="0 0 125 125" style="enable-background:new 0 0 125 125;" xml:space="preserve">
<style type="text/css">
	.st0{fill-rule:evenodd;clip-rule:evenodd;fill:#3A86FF;}
</style>
<g>
	<path class="st0" d="M40.6,75.6l8.8,25.8l4.4-15.3l-2.2-2.4c-1-1.4-1.2-2.7-0.7-3.7c1.2-2.3,3.6-1.9,5.9-1.9c2.4,0,5.3-0.4,6,2.5
		c0.2,1-0.1,2-0.8,3.1L60,86.1l4.4,15.3l7.9-25.8c1.7,1.5,4.4,2.7,7.5,3.7c0.5-0.6,1-1.1,1.5-1.6c4.5-4.5,10.8-7.3,17.6-7.3
		s13.1,2.8,17.6,7.3c4.5,4.5,7.3,10.8,7.3,17.6s-2.8,13.1-7.3,17.6c-4.5,4.5-10.8,7.3-17.6,7.3c-5.2,0-10.1-1.6-14.1-4.3H7.1
		c-3.8-0.3-5.8-2.3-6.1-5.7c1-6.6,1.2-15.2,5.2-20.4c1.4-1.9,3.3-3.3,5.3-4.4C17.9,81.8,34.9,80.8,40.6,75.6L40.6,75.6z M86.2,97.4
		l4.5-4.8l6.6,6.3l10.2-13.6l5.1,4.1c-2.4,3-10.9,14.7-12.8,16.2c-1.5,1.2-3.7,1.2-5.2-0.1L86.2,97.4L86.2,97.4z M114,80.3
		c-3.8-3.8-9.2-6.2-15-6.2c-5.9,0-11.2,2.4-15,6.2c-3.8,3.8-6.2,9.2-6.2,15c0,5.9,2.4,11.2,6.2,15c3.8,3.8,9.1,6.2,15,6.2
		c5.9,0,11.2-2.4,15-6.2c3.8-3.8,6.2-9.2,6.2-15C120.2,89.4,117.9,84.1,114,80.3L114,80.3z M36.4,38.7c0.7,0.2,1.4,0.2,2.1,0.1
		l-1.2-9.9c0.6-2.5,1.6-4.4,2.9-5.8c1.4-1.5,3.1-2.4,5.1-2.8c2.7-0.2,3.5,1.8,6.2,3.5c8.2,5.2,15.1,7,25.2,7.1l-1.2,6.3
		c-0.2,0.3-0.3,0.6-0.2,0.9c0,0,0,0.1,0,0.2L75,39.2c0.3,0,0.6,0,0.8,0c0.2,0.2,0.6,0.2,0.9,0.2c1.8-0.2,2.8,0,3.1,0.6
		c0.4,0.8,0.1,2.4-1.1,5l-5.5,9.1c-2.1,3.4-4.1,6.8-6.8,9.2c-2.5,2.4-5.7,4-9.9,4c-4,0-6.9-1.5-9.4-3.8c-2.6-2.3-4.6-5.5-6.6-8.7
		l-4.9-7.8l0,0l0,0c-1.5-2.2-2.3-4.2-2.3-5.7c0-0.5,0.1-0.9,0.2-1.3c0.2-0.3,0.4-0.6,0.7-0.8C34.7,38.9,35.4,38.7,36.4,38.7
		L36.4,38.7L36.4,38.7z M80,36.9l0.3-12.7c-0.4-5.2-2.1-9.1-4.8-12C68.9,4.9,56.4,3,46.9,6.4c-1.6,0.6-3.1,1.3-4.5,2.2
		c-3.9,2.5-7,6.1-8.3,10.6c-0.3,1.1-0.5,2.1-0.6,3.2c-0.2,4.5-0.1,9.8,0.2,14c-0.4,0.2-0.8,0.4-1.2,0.6c-0.8,0.5-1.3,1.2-1.7,2
		c-0.4,0.8-0.5,1.6-0.5,2.6c0.1,2,1,4.5,2.8,7.2l4.9,7.8c2.1,3.3,4.2,6.6,7.1,9.2c2.9,2.7,6.5,4.5,11.3,4.5c5.1,0,8.8-1.9,11.9-4.7
		c2.9-2.7,5.1-6.3,7.3-9.8l5.6-9.2c0,0,0.1-0.1,0.1-0.2l0,0c1.5-3.5,1.9-5.9,1.1-7.5C81.9,37.8,81.1,37.2,80,36.9L80,36.9L80,36.9z"
		/>
</g>
</svg>
