<?xml version="1.0" encoding="utf-8"?>
<!-- Generator: Adobe Illustrator 27.4.1, SVG Export Plug-In . SVG Version: 6.00 Build 0)  -->
<svg version="1.1" id="Layer_1" xmlns="http://www.w3.org/2000/svg" xmlns:xlink="http://www.w3.org/1999/xlink" x="0px" y="0px"
	 viewBox="0 0 125 125" style="enable-background:new 0 0 125 125;" xml:space="preserve">
<style type="text/css">
	.st0{fill-rule:evenodd;clip-rule:evenodd;fill:#3A86FF;}
</style>
<path class="st0" d="M30.3,70c0.2-1.9-5.3-9-6.4-12.5c-2.2-3.5-3-9-0.6-12.6c0.9-1.5,0.5-2.7,0.5-4.7c0-19.9,34.9-19.9,34.9,0
	c0,2.5-0.6,3.1,0.8,5.1c2.2,3.2,1,9.2-0.8,12.2c-1.2,3.6-7.1,10.4-6.6,12.5C52.5,80.3,30.1,79.8,30.3,70L30.3,70z M43,87.7h1.2
	c1.1,0,2-0.9,2-2v-3.3c0-1.1-0.9-2-2-2h-7.3c-1.1,0-2,0.9-2,2v3.2c0,1.1,0.9,2,2,2h1.2l-2.4,12.1h9.5L43,87.7z M1,99.7
	C1.9,87.5-0.5,88,9.8,84.3c5-1.9,9.8-4.4,14.3-7.3l8.8,22.8H1V99.7z M57.3,76c4.1,2.8,8.6,5,13.2,6.6c9.6,3.2,9.5,3.6,9.5,17.2H48.3
	L57.3,76z M92.6,90.1h1c0.9,0,1.6-0.7,1.6-1.6v-2.6c0-0.9-0.7-1.6-1.6-1.6h-5.9c-0.9,0-1.6,0.7-1.6,1.6l0,0v2.6
	c0,0.9,0.7,1.6,1.6,1.6h1l-1.9,9.7h7.6L92.6,90.1L92.6,90.1z M82.4,75.8c0.2-1.5-4.3-7.3-5.1-10c-1.8-2.8-2.4-7.2-0.5-10.1
	c0.8-1.2,0.4-2.2,0.4-3.8c0-16,28-16,28,0c0,2-0.5,2.5,0.6,4.1c1.8,2.7,0.9,7.4-0.7,9.9c-1,2.9-5.7,8.4-5.4,10
	C100.1,84,82.3,83.7,82.4,75.8L82.4,75.8z M104.1,80.7c3.9,2.2,8,4,12.2,5.3c7.7,2.6,7.7,2.9,7.6,13.8h-27L104.1,80.7z"/>
</svg>
