<?xml version="1.0" encoding="utf-8"?>
<!-- Generator: Adobe Illustrator 27.4.1, SVG Export Plug-In . SVG Version: 6.00 Build 0)  -->
<svg version="1.1" id="Layer_1" xmlns="http://www.w3.org/2000/svg" xmlns:xlink="http://www.w3.org/1999/xlink" x="0px" y="0px"
	 viewBox="0 0 125 125" style="enable-background:new 0 0 125 125;" xml:space="preserve">
<style type="text/css">
	.st0{fill:#3A86FF;}
</style>
<g>
	<path class="st0" d="M82.9,4.8c0-2.7,2.6-4.8,5.9-4.8c3.3,0,5.9,2.2,5.9,4.8v21.1c0,2.7-2.6,4.8-5.9,4.8c-3.3,0-5.9-2.2-5.9-4.8
		V4.8L82.9,4.8z M48.2,65.7v7.9h-6.4v31.5H31V73.6h-6.4v-7.9H48.2L48.2,65.7z M67.2,65.7l6.2,39.4H62.3L61.8,98h-3.9l-0.6,7.1H46.1
		l5.5-39.4L67.2,65.7L67.2,65.7z M61.5,91c-0.5-4.5-1.1-10-1.6-16.6c-1.1,7.6-1.8,13.1-2,16.6H61.5L61.5,91z M98.5,65.7l-3.8,17.4
		l5.7,22h-10c-1.2-3.9-2.3-8.7-3.3-14.4c-0.3,2.5-0.7,5.2-1.2,8l-1,6.4H74.4l3.9-22l-3.9-17.4h10.5c0.2,1.1,0.6,2.9,1.1,5.4
		c0.4,1.9,0.8,3.7,1.1,5.3l2.3-10.8L98.5,65.7L98.5,65.7z M30,4.8C30,2.1,32.7,0,35.9,0c3.3,0,5.9,2.2,5.9,4.8v21.1
		c0,2.7-2.6,4.8-5.9,4.8c-3.3,0-5.9-2.2-5.9-4.8L30,4.8L30,4.8z M6.5,46.1h112V21.8c0-0.8-0.3-1.6-0.9-2.1c-0.5-0.5-1.3-0.9-2.1-0.9
		h-10.7c-1.8,0-3.3-1.4-3.3-3.3s1.4-3.3,3.3-3.3h10.7c2.6,0,5,1.1,6.7,2.8c1.7,1.7,2.8,4.1,2.8,6.7v93.7c0,2.6-1.1,5-2.8,6.7
		c-1.7,1.7-4.1,2.8-6.7,2.8H9.5c-2.6,0-5-1.1-6.7-2.8c-1.7-1.7-2.8-4.1-2.8-6.7V21.9c0-2.6,1.1-5,2.8-6.7c1.7-1.7,4.1-2.8,6.7-2.8
		H21c1.8,0,3.3,1.4,3.3,3.3s-1.4,3.3-3.3,3.3H9.5c-0.8,0-1.6,0.3-2.1,0.9c-0.5,0.5-0.9,1.3-0.9,2.1L6.5,46.1L6.5,46.1L6.5,46.1z
		 M118.4,52.6H6.5v62.9c0,0.8,0.3,1.6,0.9,2.1c0.5,0.5,1.3,0.9,2.1,0.9h106c0.8,0,1.6-0.3,2.1-0.9c0.5-0.5,0.9-1.3,0.9-2.1
		L118.4,52.6L118.4,52.6z M51.2,18.8c-1.8,0-3.3-1.4-3.3-3.3s1.4-3.3,3.3-3.3h21.9c1.8,0,3.3,1.4,3.3,3.3s-1.4,3.3-3.3,3.3H51.2
		L51.2,18.8z"/>
</g>
</svg>
