<?xml version="1.0" encoding="utf-8"?>
<!-- Generator: Adobe Illustrator 27.4.1, SVG Export Plug-In . SVG Version: 6.00 Build 0)  -->
<svg version="1.1" id="Layer_1" xmlns="http://www.w3.org/2000/svg" xmlns:xlink="http://www.w3.org/1999/xlink" x="0px" y="0px"
	 viewBox="0 0 125 125" style="enable-background:new 0 0 125 125;" xml:space="preserve">
<style type="text/css">
	.st0{fill-rule:evenodd;clip-rule:evenodd;fill:#3A86FF;}
</style>
<path class="st0" d="M102.1,76.5c12.6,0,22.8,10.2,22.9,22.8c0,12.6-10.2,22.8-22.8,22.9c-12.6,0-22.8-10.2-22.9-22.8c0,0,0,0,0,0
	C79.3,86.7,89.6,76.5,102.1,76.5L102.1,76.5L102.1,76.5z M45.6,73.6c-0.3-0.4,0.8-3.3,1-3.7c-3.1-2.7-5.5-5.5-6-11.1h-0.3
	c-0.8,0-1.5-0.2-2.2-0.6c-1.1-0.7-1.9-1.7-2.4-2.9c-1.1-2.5-2-9.2,0.8-11.1l-0.5-0.3L36,43.2c-0.1-1.3-0.1-2.9-0.2-4.6
	c-0.1-6.2-0.2-11.7-5.2-13.2l-2.1-0.7l1.4-1.7c3.7-4.7,7.9-9,12.6-12.8C47.3,6.3,52.2,3.8,57,3c5.1-0.8,10.2,0.6,14.1,4
	c1.4,1.1,2.7,2.4,3.8,3.8c4.5,0.5,8.7,2.9,11.3,6.6c1.7,2.2,2.9,4.8,3.7,7.4c0.8,2.7,1.1,5.6,1,8.4c-0.3,5.1-2.1,8-5.9,11.6
	c0.6,0,1.3,0.2,1.8,0.5c2.1,1.1,2.2,3.5,1.6,5.6c-0.6,1.7-1.3,3.7-1.9,5.3c-0.8,2.2-2,2.7-4.2,2.4c-0.1,5.5-2.7,8.3-6.1,11.5
	l0.8,2.7C75,83.5,51.9,84.7,45.6,73.6L45.6,73.6z M75.1,113.2H0c0-33.6,19.7-25.7,39.7-38.5c4.9,13,24.8,15.9,36.7,8.6
	C70.8,92.4,70.3,103.7,75.1,113.2L75.1,113.2z M112.6,104.1c0.9,0.9,1.6,1.4,0.5,2.5l-3.5,3.4c-1.1,1.1-1.8,1-2.8,0l-4.7-4.7
	l-4.7,4.7c-0.9,0.9-1.4,1.6-2.5,0.5l-3.4-3.5c-1.1-1.1-1-1.8,0-2.8l4.7-4.7l-4.7-4.7c-1-1-1.1-1.7,0-2.8l3.5-3.6
	c1-1.1,1.6-0.4,2.5,0.5l4.7,4.7l4.7-4.7c1-1,1.7-1.1,2.8,0l3.5,3.4c1.1,1,0.4,1.6-0.5,2.5l-4.7,4.7L112.6,104.1L112.6,104.1z"/>
</svg>
