<?xml version="1.0" encoding="utf-8"?>
<!-- Generator: Adobe Illustrator 27.4.1, SVG Export Plug-In . SVG Version: 6.00 Build 0)  -->
<svg version="1.1" id="insurance" xmlns="http://www.w3.org/2000/svg" xmlns:xlink="http://www.w3.org/1999/xlink" x="0px" y="0px"
	 viewBox="0 0 125 125" style="enable-background:new 0 0 125 125;" xml:space="preserve">
<style type="text/css">
	.st0{fill:#3A86FF;}
</style>
<g>
	<path class="st0" d="M62.4,0L62.4,0c-0.2,0-0.4,0-0.6,0.1L11.4,14.5c-1,0.3-1.7,1.2-1.7,2.3v60.1C9.5,94.9,23,107.1,36,114.5
		c13,7.4,25.9,10.5,25.9,10.5c0.4,0.1,0.7,0.1,1.1,0c0,0,12.9-3,25.9-10.5c13-7.4,26.5-19.5,26.5-37.6V16.8c0-1.1-0.7-2-1.7-2.3
		L63.2,0.1C62.9,0,62.7,0,62.4,0z M62.5,4.9l48.1,13.7v58.3c0,15.6-11.8,26.4-24,33.4c-11.8,6.8-23.2,9.6-24,9.8
		c-0.8-0.2-12.3-3-24.1-9.8c-12.3-7-24-17.7-24-33.3V18.7L62.5,4.9C62.5,4.9,62.5,4.9,62.5,4.9z M62.4,28.9
		c-18.6,0-33.6,15.1-33.6,33.6c0,18.5,15,33.7,33.6,33.7s33.7-15.1,33.7-33.7c0-0.3-0.1-0.6-0.2-0.9C95.4,43.5,80.7,28.9,62.4,28.9z
		 M62.4,33.7c16,0,28.9,12.9,28.9,28.8c0,15.9-13,28.8-28.9,28.8c-15.9,0-28.7-12.8-28.7-28.7c0-0.1,0-0.1,0-0.2
		c-0.1-15.9,12.7-28.8,28.6-28.8C62.3,33.7,62.3,33.7,62.4,33.7z M50.6,43.2L50.6,43.2l-0.1,0v4.8h4.9c4.5,0,6.8,2.1,7.6,4.8H50.6
		v4.8H63c-0.8,2.6-3.1,4.8-7.6,4.8h-1.5l0,0l0,0h-3.4v4.8h1.4l14.7,14.5l3.4-3.4L58.5,66.9c5.2-1.1,8.6-5,9.5-9.3h6.6v-4.8h-6.6
		c-0.4-1.7-1.2-3.4-2.3-4.8h8.9v-4.8C74.5,43.2,50.6,43.2,50.6,43.2z"/>
</g>
</svg>
