<?xml version="1.0" encoding="utf-8"?>
<!-- Generator: Adobe Illustrator 27.4.1, SVG Export Plug-In . SVG Version: 6.00 Build 0)  -->
<svg version="1.1" id="Layer_1" xmlns="http://www.w3.org/2000/svg" xmlns:xlink="http://www.w3.org/1999/xlink" x="0px" y="0px"
	 viewBox="0 0 125 125" style="enable-background:new 0 0 125 125;" xml:space="preserve">
<style type="text/css">
	.st0{fill-rule:evenodd;clip-rule:evenodd;fill:#3A86FF;}
</style>
<g>
	<path class="st0" d="M83.1,15.4c12.4,0,22.5,10.1,22.5,22.5c0,12.4-10.1,22.5-22.5,22.5c-12.4,0-22.5-10.1-22.5-22.5
		C60.7,25.5,70.7,15.4,83.1,15.4z M0,55.4h25.3v44.9H0V55.4z M30.3,96.6V59h16.9c7.2,1.3,14.3,5.2,21.5,9.7h13.1
		c5.9,0.4,9.1,6.4,3.3,10.3c-4.6,3.4-10.7,3.2-16.9,2.6c-4.3-0.2-4.5,5.6,0,5.6c1.6,0.1,3.2-0.2,4.7-0.2c7.8,0,14.2-1.5,18.1-7.6
		l2-4.6l19.5-9.7c9.8-3.2,16.7,7,9.5,14.1C107.9,89.5,93.4,98,78.6,104.8c-10.8,6.6-21.5,6.3-32.3,0L30.3,96.6L30.3,96.6z
		 M75.8,26.3h14.8c0.1,0,0.2,0.1,0.2,0.2v2.2c0,0.1-0.1,0.2-0.2,0.2h-4.6c0.7,0.8,1.3,1.9,1.5,3h3.1c0.1,0,0.2,0.1,0.2,0.2v2.2
		c0,0.1-0.1,0.2-0.2,0.2h-3.1c-0.3,1.3-1,2.5-1.9,3.5c-1.3,1.3-3.1,2-4.9,2v0h-0.2l8.3,9.4c0.2,0.3-0.2,0.8-0.3,0.8l-3.8,0
		l-8.8-10.1c-0.1-0.1-0.1-0.2-0.1-0.3v-3.7h5v0c0.9,0,1.7-0.4,2.3-0.9c0.2-0.2,0.4-0.5,0.6-0.7h-7.7c-0.1,0-0.2-0.1-0.2-0.2v-2.2
		c0-0.1,0.1-0.2,0.2-0.2h7.7c-0.2-0.3-0.3-0.5-0.6-0.7c-0.6-0.6-1.4-0.9-2.3-0.9v0h-5v-3.8C75.5,26.4,75.7,26.3,75.8,26.3z"/>
</g>
</svg>
