<?xml version="1.0" encoding="utf-8"?>
<!-- Generator: Adobe Illustrator 27.4.1, SVG Export Plug-In . SVG Version: 6.00 Build 0)  -->
<svg version="1.1" id="Layer_1" xmlns="http://www.w3.org/2000/svg" xmlns:xlink="http://www.w3.org/1999/xlink" x="0px" y="0px"
	 viewBox="0 0 125 125" style="enable-background:new 0 0 125 125;" xml:space="preserve">
<style type="text/css">
	.st0{fill-rule:evenodd;clip-rule:evenodd;fill:#3A86FF;}
</style>
<g>
	<path class="st0" d="M36.9,45.8c-1.1,0.1-2,0.3-2.6,0.7c-0.3,0.2-0.6,0.5-0.8,0.9c-0.2,0.4-0.3,0.9-0.2,1.4c0.1,1.6,0.9,3.6,2.5,6
		l0,0l0,0L41,63c2.1,3.3,4.3,6.7,7,9.2c2.6,2.4,5.8,4,9.9,4c4.5,0,7.8-1.7,10.5-4.2c2.8-2.6,5-6.2,7.2-9.8l5.8-9.6
		c1.1-2.5,1.5-4.2,1.2-5.1c-0.2-0.6-0.8-0.9-1.9-0.9c-0.2,0-0.5,0-0.7,0c-0.3,0-0.5,0-0.8,0.1c-0.2,0-0.3,0-0.4,0
		c-0.5,0-1.1,0-1.6-0.1l2-8.9c-14.9,2.3-26-8.7-41.7-2.2l1.1,10.4C38,45.9,37.4,45.9,36.9,45.8L36.9,45.8L36.9,45.8L36.9,45.8z
		 M124.2,97.7c0.5,0.9,0.8,1.8,0.8,2.8c0,5.1-7.9,9.2-17.6,9.2s-17.6-4.1-17.6-9.2c0-1,0.3-1.9,0.8-2.8c2.2,3.7,8.9,6.5,16.8,6.5
		C115.3,104.2,122,101.4,124.2,97.7L124.2,97.7L124.2,97.7z M113.8,78.6l-0.2,2.3l-8.6-0.8c0.7,0.9,1.2,1.9,1.5,3.1l-2.1-0.2
		c-0.1-0.6-0.5-1.3-0.9-2c-0.5-0.8-1.1-1.3-1.8-1.6l0.2-1.9L113.8,78.6L113.8,78.6L113.8,78.6L113.8,78.6z M107.4,75.1
		c8,0,14.4,2.5,14.4,5.7c0,3.1-6.5,5.7-14.4,5.7S93,83.9,93,80.7C93,77.6,99.4,75.1,107.4,75.1L107.4,75.1L107.4,75.1z M107.4,73.2
		c9.7,0,17.6,4.1,17.6,9.2c0,5.1-7.9,9.2-17.6,9.2s-17.6-4.1-17.6-9.2C89.8,77.3,97.7,73.2,107.4,73.2L107.4,73.2L107.4,73.2z
		 M124.3,88.5c0.5,0.8,0.7,1.7,0.7,2.6c0,5.1-7.9,9.2-17.6,9.2s-17.6-4.1-17.6-9.2c0-0.9,0.3-1.8,0.7-2.6c2.2,3.8,8.9,6.6,16.8,6.6
		S122.1,92.3,124.3,88.5L124.3,88.5L124.3,88.5L124.3,88.5z M124.2,107c0.5,0.9,0.8,1.8,0.8,2.8c0,5.1-7.9,9.2-17.6,9.2
		s-17.6-4.1-17.6-9.2c0-1,0.3-1.9,0.8-2.8c2.3,3.7,8.9,6.4,16.8,6.4S121.9,110.7,124.2,107L124.2,107L124.2,107L124.2,107z
		 M61.1,90.5l4.6,15.9c3.5-7.4,7.2-14.8,8.1-23.3c-1.4-1.6-2.9-3.8-4.2-5.7c-0.4-0.6-0.7-1.1-1.1-1.6c-2.8,2.1-6.2,3.4-10.6,3.4
		c-4.7,0-8.3-1.7-11.3-4.2c0,0,0,0.1-0.1,0.1c-0.5,0.7-1,1.5-1.6,2.3c-1.1,1.6-2.3,3.4-3.6,5c1.6,9.8,5.3,16.7,8.7,24l4.6-15.9
		C48.9,80.9,66.3,80.4,61.1,90.5L61.1,90.5z M70.3,74.3c0.4,0.5,0.8,1.1,1.2,1.7c0.8,1.2,1.7,2.5,2.6,3.7c1.7,1.5,4.3,2.6,7.3,3.6
		c-2,4.5-3.1,9.4-3.1,14.6c0,7.5,2.3,14.5,6.2,20.3H57.9H6.3c-3.9-0.3-6-2.3-6.3-5.9l1.4-6.1c0.4-5,1.8-8.9,4.1-12
		c1.5-2,3.4-3.5,5.5-4.6c6.2-3.4,22.1-4.6,29-9.2c1.1-1.4,2.2-3,3.2-4.4c0.6-0.9,1.2-1.7,1.7-2.4c0.1-0.1,0.2-0.2,0.3-0.3
		c-2.5-2.6-4.5-5.7-6.5-8.8l-5.2-8.3c-1.9-2.8-2.9-5.4-3-7.5c0-1,0.1-1.9,0.5-2.7c0.4-0.8,1-1.5,1.8-2.1c0.4-0.3,0.8-0.5,1.3-0.6
		c-0.3-4.5-0.5-10.1-0.2-14.8c0.1-1.1,0.3-2.2,0.6-3.4c1.3-4.7,4.7-8.6,8.8-11.2c1.4-0.9,3-1.7,4.7-2.3c3-1.1,1.5-5.6,4.8-5.7
		c7.8-0.2,20.4,6.4,25.4,11.7c2.9,3.1,4.7,7.2,5.1,12.7l-0.3,13.5l0,0c1.4,0.4,2.4,1.3,2.7,2.8c0.4,1.6,0,3.9-1.4,7.1l0,0
		c0,0.1-0.1,0.1-0.1,0.2l-5.9,9.7c-2.3,3.8-4.6,7.5-7.7,10.4L70.3,74.3L70.3,74.3L70.3,74.3z"/>
</g>
</svg>
