<?xml version="1.0" encoding="utf-8"?>
<!-- Generator: Adobe Illustrator 27.4.1, SVG Export Plug-In . SVG Version: 6.00 Build 0)  -->
<svg version="1.1" id="Layer_1" xmlns="http://www.w3.org/2000/svg" xmlns:xlink="http://www.w3.org/1999/xlink" x="0px" y="0px"
	 viewBox="0 0 125 125" style="enable-background:new 0 0 125 125;" xml:space="preserve">
<style type="text/css">
	.st0{fill-rule:evenodd;clip-rule:evenodd;fill:#3A86FF;}
</style>
<g>
	<path class="st0" d="M67,5.3c0-2.1,2.1-3.9,4.8-3.9s4.8,1.7,4.8,3.9v17c0,2.1-2.1,3.9-4.8,3.9S67,24.5,67,22.3V5.3z M125,59.2
		l-42.6,64.4l-33-21.2H7.6c-4.2,0-7.6-3.4-7.6-7.7V19.1c0-4.2,3.4-7.7,7.7-7.7h9.3c1.5,0.1,2.6,1.3,2.5,2.8
		c-0.1,1.3-1.1,2.4-2.5,2.5H7.7c-0.6,0-1.2,0.3-1.7,0.7c-0.4,0.4-0.7,1.1-0.7,1.7v19.6h64.2L66,43.9H5.2v50.8c0,0.6,0.3,1.2,0.7,1.7
		C6.4,96.8,7,97,7.6,97h39.6h3.5l24.9,15.8l0.3,0.2c2.4,1.5,5.5,0.8,7-1.6l1.4-2.2h0.1l6.4-10.4l29.2-42.9L125,59.2L125,59.2z
		 M13.8,76.3h10.9c0.7,0,1.3,0.6,1.3,1.3v8c0,0.7-0.6,1.2-1.3,1.2H13.8c-0.7,0-1.3-0.6-1.3-1.3v-8C12.5,76.9,13.1,76.3,13.8,76.3
		C13.8,76.3,13.8,76.3,13.8,76.3z M55.5,53.4h4.2l-5.5,8.3v-7.1C54.2,54,54.8,53.4,55.5,53.4L55.5,53.4z M34.6,53.4h10.9
		c0.7,0,1.3,0.5,1.3,1.2c0,0,0,0,0,0v8c0,0.7-0.6,1.3-1.3,1.3H34.6c-0.7,0-1.3-0.6-1.3-1.3v-8C33.3,54,33.9,53.4,34.6,53.4z
		 M13.8,53.4h10.9c0.7,0,1.3,0.6,1.3,1.3v8c0,0.7-0.6,1.3-1.3,1.3H13.8c-0.7,0-1.3-0.6-1.3-1.3v-8C12.5,54,13.1,53.4,13.8,53.4
		L13.8,53.4z M34.6,76.3h10l-5.4,8.1c-0.5,0.7-0.8,1.6-0.9,2.4h-3.7c-0.7,0-1.3-0.6-1.3-1.3l0,0v-8.1C33.3,76.9,33.9,76.3,34.6,76.3
		C34.6,76.3,34.6,76.3,34.6,76.3z M24.3,5.3c0-2.1,2.1-3.9,4.8-3.9s4.8,1.7,4.8,3.9v17c0,2.1-2.1,3.9-4.8,3.9s-4.8-1.7-4.8-3.9
		C24.3,22.3,24.3,5.3,24.3,5.3z M95.6,21.5V19c0-0.6-0.2-1.2-0.7-1.7c-0.4-0.4-1-0.7-1.7-0.7h-8.7c-1.5,0.1-2.7-1-2.8-2.5
		s1-2.7,2.5-2.8c0.1,0,0.2,0,0.3,0h8.7c4.2,0,7.7,3.4,7.7,7.7v5.9L95.6,21.5z M41.4,16.7c-1.5,0-2.6-1.2-2.6-2.6s1.2-2.6,2.6-2.6
		h17.6c1.5,0,2.6,1.2,2.6,2.6s-1.2,2.6-2.6,2.6H41.4z M121.1,45.2l-42.6,64.4l-34-21.7L87,23.5L121.1,45.2z M90,62.8
		c2.5,4.4,1,10-3.4,12.5c-4.4,2.5-10,1-12.5-3.4c-2.5-4.4-1-10,3.3-12.5C81.8,56.9,87.4,58.4,90,62.8C90,62.8,90,62.8,90,62.8z
		 M108.8,52.9L80.3,95.3c-2.8-1.8-6.5-1-8.2,1.8l-13.4-8.6c1.8-2.8,1-6.5-1.8-8.2l28.6-42.5c2.8,1.8,6.4,1,8.2-1.8l13.4,8.6
		C105.2,47.4,106.1,51.1,108.8,52.9z"/>
</g>
</svg>
