<?xml version="1.0" encoding="utf-8"?>
<!-- Generator: Adobe Illustrator 27.4.1, SVG Export Plug-In . SVG Version: 6.00 Build 0)  -->
<svg version="1.1" id="Layer_1" xmlns="http://www.w3.org/2000/svg" xmlns:xlink="http://www.w3.org/1999/xlink" x="0px" y="0px"
	 viewBox="0 0 125 125" style="enable-background:new 0 0 125 125;" xml:space="preserve">
<style type="text/css">
	.st0{fill:#3A86FF;}
	.st1{fill:#FFFFFF;}
</style>
<g>
	<path class="st0" d="M79.2,31.2c1-0.1,1.8-0.9,1.8-1.9c0-1.1-0.9-2-2-2h-2.9c3.9-5.5,6.7-12.7,7.3-19.2l0,0C83.5,7,83.1,6,82.3,5.2
		c-0.9-0.8-2-1.1-3.2-0.9c-7.3,1.5-12.8-0.3-18-2.1C57.6,1.1,54.4,0,51,0c-3.6,0-6.8,1.2-10,3.8c-0.9,0.7-1.4,1.8-1.4,3
		c0.3,6.6,3.2,14.6,7.4,20.6h-2.9c-1.1,0-2,0.9-2,2c0,1,0.8,1.9,1.8,1.9C26.6,43.7,13.8,72.6,13.8,92.9c0,28.3,24.2,32.1,47.8,32.1
		s47.8-3.8,47.8-32.1C109.4,72.6,96.6,43.6,79.2,31.2z M61.6,121.1c-31.2,0-43.9-8.2-43.9-28.2c0-21.4,14.7-52.8,33.8-61.7h6.7
		c-0.3,0.5-0.8,0.9-1.4,1.6c-1.8,1.8-4.2,4.4-5.1,9.7c-0.2,1.2,0.7,2.3,1.9,2.3c0.9,0,1.8-0.7,1.9-1.6c0.7-4.2,2.4-5.9,4.1-7.7
		c0.8-0.8,1.6-1.7,2.2-2.7c1.5,1.7,3.1,4.6,2.4,8.6c-0.2,1.1,0.5,2.1,1.6,2.3s2.1-0.5,2.3-1.6c0.9-4.9-0.7-8.5-2.5-10.9h6.1
		c19,8.8,33.8,40.3,33.8,61.7C105.4,112.9,92.7,121.1,61.6,121.1z"/>
	<path class="st0" d="M61.6,53.5c-15.2,0-27.5,12.3-27.5,27.5s12.3,27.5,27.5,27.5S89.1,96.2,89.1,81S76.8,53.5,61.6,53.5z
		 M94.8,15.9l1.8-1.8c0,0.4,0,13.1,0,12.4c0,1.1,0.9,2,2,2s2-0.9,2-2c0-0.4,0-13.1,0-12.4l1.8,1.8c0.4,0.4,0.9,0.6,1.4,0.6
		s1-0.2,1.4-0.6c0.8-0.8,0.8-2,0-2.8L99.9,8c-0.8-0.8-2-0.8-2.8,0L92,13.2c-0.8,0.8-0.8,2,0,2.8C92.8,16.7,94,16.7,94.8,15.9z
		 M121.4,28.4l-5.1-5.1c-0.8-0.8-2-0.8-2.8,0l-5.1,5.1c-0.8,0.8-0.8,2,0,2.8s2,0.8,2.8,0l1.8-1.8c0,0.4,0,13.1,0,12.4
		c0,1.1,0.9,2,2,2s2-0.9,2-2c0-0.4,0-13.1,0-12.4l1.8,1.8c0.4,0.4,0.9,0.6,1.4,0.6s1-0.2,1.4-0.6C122.1,30.4,122.1,29.1,121.4,28.4z
		 M22.7,15.9l1.8-1.8c0,0.4,0,13.1,0,12.4c0,1.1,0.9,2,2,2s2-0.9,2-2c0-0.4,0-13.1,0-12.4l1.8,1.8c0.4,0.4,0.9,0.6,1.4,0.6
		c0.5,0,1-0.2,1.4-0.6c0.8-0.8,0.8-2,0-2.8L27.9,8c-0.8-0.8-2-0.8-2.8,0L20,13.2c-0.8,0.8-0.8,2,0,2.8C20.7,16.7,22,16.7,22.7,15.9z
		 M13.9,31.1c0.4,0.4,0.9,0.6,1.4,0.6s1-0.2,1.4-0.6c0.8-0.8,0.8-2,0-2.8l-5.1-5.1c-0.8-0.8-2-0.8-2.8,0l-5.1,5.1
		c-0.8,0.8-0.8,2,0,2.8s2,0.8,2.8,0l1.8-1.8c0,0.4,0,13.1,0,12.4c0,1.1,0.9,2,2,2s2-0.9,2-2c0-0.4,0-13.1,0-12.4L13.9,31.1z
		 M100.5,32.7c0-1.1-0.9-2-2-2s-2,0.9-2,2V34c0,1.1,0.9,2,2,2s2-0.9,2-2V32.7z M98.5,38.3c-1.1,0-2,0.9-2,2V41c0,1.1,0.9,2,2,2
		s2-0.9,2-2v-0.7C100.5,39.2,99.6,38.3,98.5,38.3z M114.8,53.6c-1.1,0-2,0.9-2,2v0.7c0,1.1,0.9,2,2,2s2-0.9,2-2v-0.7
		C116.8,54.4,115.9,53.6,114.8,53.6z M114.8,46c-1.1,0-2,0.9-2,2v1.3c0,1.1,0.9,2,2,2s2-0.9,2-2V48C116.8,46.9,115.9,46,114.8,46z
		 M28.4,32.7c0-1.1-0.9-2-2-2s-2,0.9-2,2V34c0,1.1,0.9,2,2,2s2-0.9,2-2V32.7z M26.5,38.3c-1.1,0-2,0.9-2,2V41c0,1.1,0.9,2,2,2
		s2-0.9,2-2v-0.7C28.4,39.2,27.6,38.3,26.5,38.3z M10.2,53.6c-1.1,0-2,0.9-2,2v0.7c0,1.1,0.9,2,2,2s2-0.9,2-2v-0.7
		C12.1,54.4,11.2,53.6,10.2,53.6z M10.2,46c-1.1,0-2,0.9-2,2v1.3c0,1.1,0.9,2,2,2s2-0.9,2-2V48C12.1,46.9,11.2,46,10.2,46z"/>
	<path class="st1" d="M53,69.4L53,69.4L53,69.4l-0.1,3.8h3.9c3.6,0,5.4,1.7,6.1,3.8H53v3.8h9.9c-0.6,2.1-2.5,3.8-6.1,3.8h-1.2l0,0
		l0,0h-2.7v3.8H54L65.7,100l2.7-2.7l-9.2-9.1c4.1-0.9,6.9-4,7.6-7.4h5.3V77h-5.3c-0.3-1.4-1-2.7-1.8-3.8h7.1v-3.8
		C72,69.4,53,69.4,53,69.4z"/>
</g>
</svg>
