<?xml version="1.0" encoding="utf-8"?>
<!-- Generator: Adobe Illustrator 27.4.1, SVG Export Plug-In . SVG Version: 6.00 Build 0)  -->
<svg version="1.1"
	 id="Layer_1" shape-rendering="geometricPrecision" image-rendering="optimizeQuality" text-rendering="geometricPrecision"
	 xmlns="http://www.w3.org/2000/svg" xmlns:xlink="http://www.w3.org/1999/xlink" x="0px" y="0px" viewBox="0 0 125 125"
	 style="enable-background:new 0 0 125 125;" xml:space="preserve">
<style type="text/css">
	.st0{fill:#3A86FF;}
</style>
<g>
	<path class="st0" d="M71.8,4.9c0-2.3,2.3-4.2,5.1-4.2c2.8,0,5.1,1.9,5.1,4.2v18.3c0,2.3-2.3,4.2-5.1,4.2c-2.8,0-5.1-1.9-5.1-4.2
		L71.8,4.9L71.8,4.9z M101.1,79.2l3.4,3.4c0.8,0.8,0.8,2.2,0,3l-5.9,5.9l5.9,5.9c0.8,0.8,0.8,2.2,0,3l-3.4,3.4c-0.8,0.8-2.2,0.8-3,0
		L92.2,98l-5.9,5.9c-0.8,0.8-2.2,0.8-3,0l-3.4-3.4c-0.8-0.8-0.8-2.2,0-3l5.9-5.9l-5.9-5.9c-0.8-0.8-0.8-2.2,0-3l3.4-3.4
		c0.8-0.8,2.2-0.8,3,0l5.9,5.9l5.9-5.9C99,78.4,100.3,78.4,101.1,79.2L101.1,79.2z M92.2,58.8c9,0,17.2,3.7,23.2,9.6
		c5.9,5.9,9.6,14.1,9.6,23.2c0,9-3.7,17.2-9.6,23.2c-5.9,5.9-14.1,9.6-23.2,9.6c-9,0-17.2-3.7-23.2-9.6c-5.9-5.9-9.6-14.1-9.6-23.2
		c0-9,3.7-17.2,9.6-23.2l0.2-0.2C75.2,62.4,83.3,58.8,92.2,58.8L92.2,58.8z M111.5,72.3c-4.9-4.9-11.7-8-19.2-8
		c-7.4,0-14.2,3-19.1,7.8L73,72.3c-4.9,4.9-8,11.7-8,19.2c0,7.5,3,14.3,8,19.2c4.9,4.9,11.7,8,19.2,8c7.5,0,14.3-3,19.2-8
		c4.9-4.9,8-11.7,8-19.2C119.4,84.1,116.4,77.3,111.5,72.3L111.5,72.3z M13.9,59.8c-0.3,0-0.5-1.3-0.5-2.8c0-1.6,0.2-2.8,0.5-2.8
		h13.9c0.3,0,0.5,1.3,0.5,2.8c0,1.6-0.2,2.8-0.5,2.8H13.9z M36,59.8c-0.3,0-0.5-1.3-0.5-2.8c0-1.6,0.2-2.8,0.5-2.8h13.9
		c0.3,0,0.5,1.3,0.5,2.8c0,1.6-0.2,2.8-0.5,2.8H36z M58.2,59.8c-0.3,0-0.5-1.3-0.5-2.8c0-1.6,0.2-2.8,0.5-2.8h13.9
		c0.3,0,0.5,1.3,0.5,2.8c-1.4,0.9-2.7,1.8-4,2.8H58.2L58.2,59.8z M13.9,76c-0.3,0-0.5-1.3-0.5-2.8c0-1.6,0.2-2.8,0.5-2.8h13.9
		c0.3,0,0.5,1.3,0.5,2.8c0,1.6-0.2,2.8-0.5,2.8H13.9z M36.1,76c-0.3,0-0.5-1.3-0.5-2.8c0-1.6,0.2-2.8,0.5-2.8H50
		c0.3,0,0.5,1.3,0.5,2.8c0,1.6-0.2,2.8-0.5,2.8H36.1z M13.9,92.2c-0.3,0-0.5-1.3-0.5-2.8c0-1.6,0.2-2.8,0.5-2.8h13.9
		c0.3,0,0.5,1.3,0.5,2.8c0,1.6-0.2,2.8-0.5,2.8C27.8,92.2,13.9,92.2,13.9,92.2z M36.1,92.2c-0.3,0-0.5-1.3-0.5-2.8
		c0-1.6,0.2-2.8,0.5-2.8H50c0.3,0,0.5,1.3,0.5,2.8c0,1.6-0.2,2.8-0.5,2.8H36.1L36.1,92.2z M26.1,4.9c0-2.3,2.3-4.2,5.1-4.2
		c2.8,0,5.1,1.9,5.1,4.2v18.3c0,2.3-2.3,4.2-5.1,4.2c-2.8,0-5.1-1.9-5.1-4.2V4.9z M5.6,40.6h97v-21c0-0.7-0.3-1.4-0.8-1.8
		c-0.5-0.5-1.1-0.8-1.8-0.8h-9.3c-1.6,0-2.8-1.3-2.8-2.8c0-1.6,1.3-2.8,2.8-2.8h9.3c2.3,0,4.3,0.9,5.8,2.4c1.5,1.5,2.4,3.5,2.4,5.8
		V53c-1.9-0.6-3.8-1.2-5.7-1.5v-5.2h0.1h-97v54.5c0,0.7,0.3,1.4,0.8,1.8c0.5,0.5,1.1,0.8,1.8,0.8h46.1c0.5,2,1.2,3.9,2,5.7h-48
		c-2.3,0-4.3-0.9-5.8-2.4c-1.5-1.5-2.4-3.5-2.4-5.8V19.6c0-2.3,0.9-4.3,2.4-5.8c1.5-1.5,3.5-2.4,5.8-2.4h9.9c1.6,0,2.8,1.3,2.8,2.8
		c0,1.6-1.3,2.8-2.8,2.8H8.2c-0.7,0-1.4,0.3-1.8,0.8c-0.5,0.5-0.8,1.1-0.8,1.8L5.6,40.6L5.6,40.6L5.6,40.6z M44.4,17
		c-1.6,0-2.8-1.3-2.8-2.8c0-1.6,1.3-2.8,2.8-2.8h18.9c1.6,0,2.8,1.3,2.8,2.8c0,1.6-1.3,2.8-2.8,2.8H44.4L44.4,17z"/>
</g>
</svg>
