<?xml version="1.0" encoding="utf-8"?>
<!-- Generator: Adobe Illustrator 27.4.1, SVG Export Plug-In . SVG Version: 6.00 Build 0)  -->
<svg version="1.1" id="Layer_1" xmlns="http://www.w3.org/2000/svg" xmlns:xlink="http://www.w3.org/1999/xlink" x="0px" y="0px"
	 viewBox="0 0 125 125" style="enable-background:new 0 0 125 125;" xml:space="preserve">
<style type="text/css">
	.st0{fill-rule:evenodd;clip-rule:evenodd;fill:#3A86FF;}
</style>
<g>
	<path class="st0" d="M93.5,60.4c17.4,0,31.5,14.1,31.5,31.5s-14.1,31.5-31.5,31.5s-31.5-14.1-31.5-31.5S76.1,60.4,93.5,60.4z
		 M71.1,5.7c0-2.3,2.2-4.1,5.1-4.1c2.8,0,5.1,1.9,5.1,4.1v18.1c0,2.3-2.2,4.1-5.1,4.1c-2.8,0-5.1-1.9-5.1-4.1
		C71.1,23.8,71.1,5.7,71.1,5.7z M13.7,60.1c-0.3,0-0.5-1.3-0.5-2.8c0-1.5,0.2-2.8,0.5-2.8h13.7c0.3,0,0.5,1.3,0.5,2.8
		c0,1.5-0.2,2.8-0.5,2.8H13.7z M35.6,60.1c-0.3,0-0.5-1.3-0.5-2.8c0-1.5,0.2-2.8,0.5-2.8h13.8c0.3,0,0.5,1.3,0.5,2.8
		c0,1.5-0.2,2.8-0.5,2.8L35.6,60.1z M57.6,60.1c-0.3,0-0.5-1.3-0.5-2.8c0-1.5,0.2-2.8,0.5-2.8h13.8c0.3,0,0.5,1.2,0.5,2.8
		c-1.4,0.9-2.7,1.8-4,2.8H57.6z M13.8,76.1c-0.3,0-0.5-1.3-0.5-2.8c0-1.5,0.2-2.8,0.5-2.8h13.7c0.3,0,0.5,1.3,0.5,2.8
		c0,1.5-0.2,2.8-0.5,2.8H13.8z M35.7,76.1c-0.3,0-0.5-1.3-0.5-2.8c0-1.5,0.2-2.8,0.5-2.8h13.8c0.3,0,0.5,1.3,0.5,2.8
		c0,1.5-0.2,2.8-0.5,2.8H35.7z M13.8,92.1c-0.3,0-0.5-1.3-0.5-2.8c0-1.5,0.2-2.8,0.5-2.8h13.7c0.3,0,0.5,1.3,0.5,2.8
		c0,1.5-0.2,2.8-0.5,2.8H13.8z M35.7,92.1c-0.3,0-0.5-1.3-0.5-2.8c0-1.5,0.2-2.8,0.5-2.8h13.8c0.3,0,0.5,1.3,0.5,2.8
		c0,1.5-0.2,2.8-0.5,2.8H35.7z M25.8,5.7c0-2.3,2.2-4.1,5-4.1s5,1.9,5,4.1v18.1c0,2.3-2.2,4.1-5,4.1s-5-1.9-5-4.1V5.7z M5.5,41.1h96
		V20.3c0-1.4-1.1-2.5-2.5-2.5h-9.2c-1.5,0.1-2.9-1.1-3-2.6s1.1-2.9,2.6-3c0.1,0,0.2,0,0.3,0H99c4.5,0,8.1,3.6,8.1,8.1v33
		c-1.9-0.6-3.7-1.1-5.7-1.5v-5.2H5.5v53.9c0,0.6,0.3,1.3,0.8,1.7c0.5,0.5,1.1,0.8,1.8,0.8h45.5c0.5,1.9,1.2,3.8,2,5.6H8.1
		c-2.2,0-4.2-0.8-5.7-2.4c-1.5-1.5-2.4-3.6-2.4-5.8V20.3c0-4.5,3.6-8.1,8.1-8.1H18c1.5,0.1,2.7,1.4,2.6,3c-0.1,1.4-1.2,2.5-2.6,2.6
		H8.1c-0.7,0-1.3,0.3-1.8,0.7c-0.5,0.5-0.7,1.1-0.7,1.8L5.5,41.1L5.5,41.1L5.5,41.1z M43.9,17.7c-1.5,0.1-2.9-1.1-3-2.6
		s1.1-2.9,2.6-3c0.1,0,0.2,0,0.3,0h18.7c1.5-0.1,2.9,1.1,3,2.6c0.1,1.5-1.1,2.9-2.6,3c-0.1,0-0.2,0-0.3,0H43.9z M84,86.5l5.9,5.6
		l12.3-12.5c1-1,1.6-1.9,2.9-0.6l4.1,4.2c1.3,1.3,1.3,2,0,3.3l-17,16.7c-2.6,2.6-2.2,2.7-4.9,0.1L77.2,93.2
		c-0.5-0.4-0.5-1.2-0.1-1.7c0.1-0.1,0.1-0.1,0.2-0.2l4.7-4.9C82.7,85.8,83.3,85.8,84,86.5L84,86.5z"/>
</g>
</svg>
