<?xml version="1.0" encoding="utf-8"?>
<!-- Generator: Adobe Illustrator 27.4.1, SVG Export Plug-In . SVG Version: 6.00 Build 0)  -->
<svg version="1.1" id="Layer_1" xmlns="http://www.w3.org/2000/svg" xmlns:xlink="http://www.w3.org/1999/xlink" x="0px" y="0px"
	 viewBox="0 0 125 125" style="enable-background:new 0 0 125 125;" xml:space="preserve">
<style type="text/css">
	.st0{fill:#3A86FF;}
</style>
<g>
	<path class="st0" d="M82.4,82c-2-5.4-5.1-9.4-8.8-12c-2.5-1.7-5.3-2.8-8.1-3.3c-2.8-0.5-5.7-0.3-8.5,0.5C51,69.1,45.5,74,42.6,82
		H82.4L82.4,82z M41.1,39.8h42.9c0.2-1.9,0.8-9.1,0.7-11.3H40.3C40.3,30.7,40.8,37.8,41.1,39.8L41.1,39.8L41.1,39.8z M28,96.5h6.4
		c-0.2-18.3,8.1-29.6,18.3-34c-10.2-4.4-18.5-15.7-18.3-34H28c-0.3,0-0.6-0.3-0.6-0.7l0-5.4c0-0.4,0.3-0.7,0.6-0.7h69
		c0.3,0,0.6,0.3,0.6,0.7v5.4c0,0.4-0.3,0.7-0.6,0.7h-6.4C90.8,43.9,85,54.4,77,59.9c-1.5,1-3,1.9-4.6,2.6c1.6,0.7,3.2,1.6,4.6,2.6
		c7.9,5.5,13.8,16,13.6,31.4l6.4,0c0.3,0,0.6,0.3,0.6,0.7v5.4c0,0.4-0.3,0.7-0.6,0.7H28c-0.3,0-0.6-0.3-0.6-0.7v-5.4
		C27.4,96.8,27.7,96.5,28,96.5L28,96.5L28,96.5z"/>
</g>
</svg>
