<?xml version="1.0" encoding="utf-8"?>
<!-- Generator: Adobe Illustrator 27.4.1, SVG Export Plug-In . SVG Version: 6.00 Build 0)  -->
<svg version="1.1" id="Layer_1" xmlns="http://www.w3.org/2000/svg" xmlns:xlink="http://www.w3.org/1999/xlink" x="0px" y="0px"
	 viewBox="0 0 125 125" style="enable-background:new 0 0 125 125;" xml:space="preserve">
<style type="text/css">
	.st0{fill-rule:evenodd;clip-rule:evenodd;fill:#3A86FF;}
</style>
<g>
	<path class="st0" d="M26.9,108.2V69.2h17.5c7.4,1.3,14.8,5.4,22.3,10h13.6c6.2,0.4,9.4,6.6,3.4,10.7c-4.8,3.5-11.1,3.3-17.5,2.7
		c-4.4-0.2-4.6,5.8,0,5.8c1.6,0.1,3.4-0.3,4.9-0.3c8,0,14.7-1.5,18.7-7.9l2-4.8l20.2-10c10.1-3.3,17.3,7.3,9.9,14.6
		c-14.6,10.7-29.7,19.4-45.1,26.5c-11.2,6.8-22.3,6.6-33.5,0L26.9,108.2L26.9,108.2L26.9,108.2L26.9,108.2z M91.9,5.8
		c12.2,5,20.1,16.9,20.1,30.1c0,9-3.7,17.2-9.5,23c-5.9,5.9-14,9.6-23,9.6c-9,0-17.1-3.7-23-9.6c-5.9-5.9-9.6-14-9.6-23
		c0-13.1,8.2-25.4,20.3-30.3C74.7,2.5,84.5,2.7,91.9,5.8L91.9,5.8L91.9,5.8z M74.5,35c0.4-0.4,0.9-0.8,1.4-1.1V19.7
		c0-1.4,1.2-2.6,2.6-2.6s2.6,1.2,2.6,2.6v14.2c1,0.5,1.7,1.3,2.3,2.3h10.8c1.4,0,2.6,1.2,2.6,2.6c0,1.4-1.2,2.6-2.6,2.6H83.4
		c-0.9,1.7-2.8,2.9-4.9,2.9c-1.7,0-3.1-0.7-4.2-1.9C72.5,40.3,72.6,37.1,74.5,35L74.5,35L74.5,35z M98.8,17
		C85.3,3.5,62.5,7.4,54.6,24.4c-1.6,3.5-2.5,7.4-2.5,11.5c0,7.6,3.1,14.4,8,19.3c5,5,11.8,8,19.3,8c7.6,0,14.4-3.1,19.3-8
		c5-4.9,8-11.8,8-19.3c0-4.3-1-8.3-2.7-12C102.7,21.2,101,19.2,98.8,17L98.8,17L98.8,17z M0,65.5h21.6v46.6H0V65.5L0,65.5L0,65.5z"
		/>
</g>
</svg>
